<?xml version="1.0" ?>
<!-- Uploaded to: SVG Repo, www.svgrepo.com, Generator: SVG Repo Mixer Tools -->
<svg fill="#000000" width="800px" height="800px" viewBox="0 0 64 64" xmlns="http://www.w3.org/2000/svg">
<g data-name="38 credit card" id="_38_credit_card">
<path d="M55.5,15.21H8.5a5.008,5.008,0,0,0-5,5V43.79a5.008,5.008,0,0,0,5,5h47a5.008,5.008,0,0,0,5-5V20.21A5.008,5.008,0,0,0,55.5,15.21Zm3,28.58a3.009,3.009,0,0,1-3,3H8.5a3.009,3.009,0,0,1-3-3V27.4h53Zm0-18.39H5.5V23.32h53Zm0-4.08H5.5V20.21a3.009,3.009,0,0,1,3-3h47a3.009,3.009,0,0,1,3,3Z"/>
<path d="M48.3,30.49a6.074,6.074,0,0,0-3.58,1.16,5.986,5.986,0,0,0-3.55-1.16,6.1,6.1,0,1,0,3.55,11.03A6.095,6.095,0,1,0,48.3,30.49ZM41.17,40.68a4.1,4.1,0,1,1,4.09-4.1A4.106,4.106,0,0,1,41.17,40.68Zm7.13,0a4.069,4.069,0,0,1-2.14-.61,6.071,6.071,0,0,0,0-6.97,4.092,4.092,0,1,1,2.14,7.58Z"/>
<path d="M10.611,36.564h8.148a1,1,0,0,0,0-2H10.611a1,1,0,1,0,0,2Z"/>
<path d="M20.8,38.639H10.611a1,1,0,1,0,0,2H20.8a1,1,0,0,0,0-2Z"/>
</g>
</svg>